# xmcd CD database file
#
# Track frame offsets:
#	150
#	9289
#	25426
#	37175
#	48885
#	61535
#	97022
#	110813
#	132724
#	152730
#	170112
#	184849
#	195462
#	206831
#	221307
#	231004
#	250636
#	269383
#	296513
#	311451
#
# Disc length: 4315 seconds
#
# Revision: 0
# Processed by: cddbd v1.5.2PL0 Copyright (c) Steve Scherf et al.
# Submitted via: CDex 1.70beta2
#
DISCID=2110d914
DTITLE=Various Artist - Country Ballads - CD4
DYEAR=1900
DGENRE=Country
TTITLE0=Chet Atkins - Yaketi Axe
TTITLE1=Waylon Jennings - Honky Tonk Heroes
TTITLE2=Johnny Paycheck - Take This Job And Shove It
TTITLE3=Tammy Wynette and David Houston - Something Stupid
TTITLE4=Loggins and Messina - Your Mama Don't Dance
TTITLE5=The Allman Brothers Band - Southbound (Live)
TTITLE6=Dolly Parton - Coat Of Many Colors
TTITLE7=Atlanta Rythm Section - Alien
TTITLE8=J.D. Souther - Trouble In Paradise
TTITLE9=Poco - A Good Feeling To Know
TTITLE10=Flying Burrito Brothers - Easy To Get On
TTITLE11=Steve Earle - Continental Trailways Blues
TTITLE12=Earl Scruggs - Banjo Man
TTITLE13=The O'Kanes - Just Lovin' You
TTITLE14=Jim Reeves - Is This Me
TTITLE15=Marty Robbins - El Paso
TTITLE16=Rodney Crowell - Oh King Richard
TTITLE17=Michael Murphey - Cosmic Cowboy - Cosmic Breakdown
TTITLE18=The Jordanaires - Swing Low Sweet Chariot
TTITLE19=Merle Haggard - The Bottle Let Me Down
EXTD=
EXTT0=
EXTT1=
EXTT2=
EXTT3=
EXTT4=
EXTT5=
EXTT6=
EXTT7=
EXTT8=
EXTT9=
EXTT10=
EXTT11=
EXTT12=
EXTT13=
EXTT14=
EXTT15=
EXTT16=
EXTT17=
EXTT18=
EXTT19=
PLAYORDER=
